<?xml version="1.0" standalone="no"?>
<!DOCTYPE svg PUBLIC "-//W3C//DTD SVG 20010904//EN"
 "http://www.w3.org/TR/2001/REC-SVG-20010904/DTD/svg10.dtd">
<svg version="1.0" xmlns="http://www.w3.org/2000/svg"
 width="50.000000pt" height="50.000000pt" viewBox="0 0 50.000000 50.000000"
 preserveAspectRatio="xMidYMid meet">

<g transform="translate(0.000000,50.000000) scale(0.100000,-0.100000)"
fill="#000000" stroke="none">
<path d="M20 450 c0 -16 5 -30 10 -30 6 0 10 -60 10 -160 l0 -160 100 0 c55 0
100 -2 100 -5 0 -3 -5 -14 -12 -24 -15 -24 -4 -51 22 -51 26 0 37 27 22 51 -7
10 -12 21 -12 24 0 3 45 5 100 5 l100 0 0 160 c0 100 4 160 10 160 6 0 10 14
10 30 l0 30 -230 0 -230 0 0 -30z m440 0 c0 -6 -77 -10 -210 -10 -133 0 -210
4 -210 10 0 6 77 10 210 10 133 0 210 -4 210 -10z m-20 -180 l0 -150 -190 0
-190 0 0 150 0 150 190 0 190 0 0 -150z m-180 -220 c0 -5 -4 -10 -10 -10 -5 0
-10 5 -10 10 0 6 5 10 10 10 6 0 10 -4 10 -10z"/>
<path d="M180 325 c0 -33 2 -35 35 -35 41 0 46 19 15 50 -31 31 -50 26 -50
-15z m40 0 c10 -12 10 -15 -4 -15 -9 0 -16 7 -16 15 0 8 2 15 4 15 2 0 9 -7
16 -15z"/>
<path d="M120 310 c-11 -11 -20 -29 -20 -40 0 -26 34 -60 60 -60 23 0 60 33
60 55 0 9 -9 15 -25 15 -20 0 -25 5 -25 25 0 31 -22 33 -50 5z m57 -50 c21 0
24 -2 13 -15 -7 -8 -20 -15 -29 -15 -36 0 -54 43 -28 69 10 10 13 7 15 -13 3
-20 9 -26 29 -26z"/>
<path d="M270 320 c0 -6 28 -10 65 -10 37 0 65 4 65 10 0 6 -28 10 -65 10 -37
0 -65 -4 -65 -10z"/>
<path d="M270 270 c0 -6 28 -10 65 -10 37 0 65 4 65 10 0 6 -28 10 -65 10 -37
0 -65 -4 -65 -10z"/>
<path d="M270 220 c0 -6 28 -10 65 -10 37 0 65 4 65 10 0 6 -28 10 -65 10 -37
0 -65 -4 -65 -10z"/>
</g>
</svg>
