<?xml version="1.0" standalone="no"?>
<!DOCTYPE svg PUBLIC "-//W3C//DTD SVG 20010904//EN"
 "http://www.w3.org/TR/2001/REC-SVG-20010904/DTD/svg10.dtd">
<svg version="1.0" xmlns="http://www.w3.org/2000/svg"
 width="30.000000pt" height="30.000000pt" viewBox="0 0 30.000000 30.000000"
 preserveAspectRatio="xMidYMid meet">

<g transform="translate(0.000000,30.000000) scale(0.100000,-0.100000)"
fill="#000000" stroke="none">
<path d="M91 273 c-124 -65 -93 -242 45 -259 73 -9 141 46 150 122 13 104
-103 186 -195 137z m94 -3 c25 0 74 -51 84 -86 26 -93 -60 -179 -152 -153 -91
25 -121 144 -53 208 25 24 73 42 94 35 8 -2 20 -4 27 -4z"/>
<path d="M100 150 c0 -38 3 -70 6 -70 13 0 114 62 114 70 0 8 -101 70 -114 70
-3 0 -6 -31 -6 -70z m61 28 c22 -12 39 -25 39 -28 0 -7 -73 -50 -84 -50 -3 0
-6 23 -6 50 0 28 3 50 6 50 4 0 24 -10 45 -22z"/>
</g>
</svg>
